<?xml version="1.0" encoding="utf-8"?>
<!-- Generator: Adobe Illustrator 27.8.1, SVG Export Plug-In . SVG Version: 6.00 Build 0)  -->
<svg version="1.1" id="Laag_1" xmlns="http://www.w3.org/2000/svg" xmlns:xlink="http://www.w3.org/1999/xlink" x="0px" y="0px"
	 viewBox="0 0 750 1334" style="enable-background:new 0 0 750 1334;" xml:space="preserve">
<style type="text/css">
	.st0{fill:#324EDE;}
	.st1{fill:#00BBA4;}
	.st2{fill:#192870;}
	.st3{fill:#CD3000;}
	.st4{fill:#FF4000;}
	.st5{fill:#354DDE;}
	.st6{fill:#4E77FF;}
	.st7{fill:none;stroke:#00BBA4;stroke-width:4;stroke-miterlimit:10;}
	.st8{fill:#00BAA4;}
	.st9{fill:#5277FF;}
	.st10{fill:none;stroke:#00897F;stroke-width:3;stroke-miterlimit:10;}
</style>
<ellipse transform="matrix(0.8825 -0.4702 0.4702 0.8825 -144.434 217.6336)" class="st0" cx="363.41" cy="397.92" rx="32.44" ry="23.1"/>
<path class="st1" d="M452.01,492h-97.97c-5.16,0-11.76,3.82-14.9,8.82l-29.02,46.35L468,540l-6.88-40.08
	C460.35,495.44,456.3,492,452.01,492z"/>
<path class="st2" d="M389,1025H287l0,0c0-23.75,19.25-43,43-43h59V1025z"/>
<path class="st3" d="M387.71,981.44l-43.52,0.34c-8,0.06-14.31-5.11-14.09-11.49l8.68-246.18c0.22-6.17,6.81-12.13,14.7-13.26
	l42.92-6.13c8.3-1.19,14.98,3.06,14.79,9.45l-7.76,255.11C403.24,975.9,396.13,981.37,387.71,981.44z"/>
<rect x="338" y="685" class="st4" width="119" height="40"/>
<path class="st4" d="M392.06,1000.84l45.74-1.23c7.14-0.19,12.85-7.08,13.07-15.72l6.56-257.7c0.23-9.07-5.97-17.23-13.58-17.84
	l-45.51-3.64c-7.27-0.58-13.17,5.65-13.41,14.21l-7.28,264.54C377.38,993.1,383.99,1001.05,392.06,1000.84z"/>
<path class="st5" d="M418.29,460.04h-31c1.42,3.28,4.38,11.12,4.12,21.73c-0.23,9.07-2.7,15.78-4.12,19.04c10.33,0,20.67,0,31,0
	V460.04z"/>
<ellipse class="st6" cx="384.79" cy="444.31" rx="35.5" ry="42.5"/>
<path class="st7" d="M386.5,494.5c-0.11,0.84-0.26,2.97,1,5c1.64,2.63,4.98,4.01,8.5,3.5"/>
<path class="st7" d="M411.06,503.09c0.97,0.16,2.98,0.35,5.06-0.66c2.96-1.44,4.82-4.71,4.89-8.43"/>
<path class="st0" d="M440,1044H338l0,0c0-23.75,19.25-43,43-43h59V1044z"/>
<path class="st0" d="M199.22,450.91l-3.96,6.86c-5.52,9.57-2.25,21.8,7.32,27.32l108.9,62.87l23.96-41.5l-108.9-62.87
	C216.97,438.06,204.74,441.34,199.22,450.91z"/>
<rect x="338" y="537" class="st8" width="121" height="148"/>
<path class="st9" d="M488.77,721.96c3.41-20.74,6.53-51.5,3.43-88.85c-3.9-46.9-15.87-83.29-24.46-104.88
	c-14.63,1.13-29.26,2.27-43.89,3.4c8.29,26.04,16.87,58.13,23.44,95.46c6.55,37.24,9.5,70.56,10.66,98.21
	C468.23,724.19,478.5,723.08,488.77,721.96z"/>
<polygon class="st3" points="384.04,756 338,737.94 338,718.36 384.93,723.92 "/>
<rect x="338" y="685" class="st3" width="47" height="39"/>
<polygon class="st4" points="455,725 457.03,708.14 457.32,730.33 455,731 "/>
<ellipse transform="matrix(0.9993 -0.0361 0.0361 0.9993 -26.4418 17.6114)" class="st9" cx="474.45" cy="740.99" rx="23.1" ry="32.44"/>
<polygon class="st1" points="477.3,555.48 421,553 421,528 461.12,499.92 "/>
<path class="st10" d="M430.5,553.5c4.9,17.48,9.5,36.34,13.5,56.5c5.31,26.76,8.79,51.9,11,75"/>
<polygon class="st1" points="338,569.85 311.48,547.96 313.65,544.2 338,545.91 "/>
<path class="st0" d="M344.15,394.47l-121.51,41.08c-16.6,5.61-28.77,18.43-25.21,27.84l4.76,12.56c3.45,9.1,19.94,9.15,35.11,1.16
	l112.8-59.45c4.07-2.14,6.3-7.32,5.2-11.7l-1.5-5.99C352.68,395.52,348.47,393.01,344.15,394.47z"/>
</svg>
