<?xml version="1.0" encoding="utf-8"?>
<!-- Generator: Adobe Illustrator 27.8.1, SVG Export Plug-In . SVG Version: 6.00 Build 0)  -->
<svg version="1.1" id="Laag_1" xmlns="http://www.w3.org/2000/svg" xmlns:xlink="http://www.w3.org/1999/xlink" x="0px" y="0px"
	 viewBox="0 0 750 1334" style="enable-background:new 0 0 750 1334;" xml:space="preserve">
<style type="text/css">
	.st0{fill:none;stroke:#FFA800;stroke-width:10;stroke-miterlimit:10;}
	.st1{fill:none;stroke:#7A15FF;stroke-width:5;stroke-miterlimit:10;}
	.st2{fill:#CD3000;}
	.st3{fill:#324EDE;}
	.st4{fill:none;stroke:#000000;stroke-miterlimit:10;}
	.st5{fill:#00BAA4;}
	.st6{fill:#5277FF;}
	.st7{fill:#00BBA4;}
	.st8{fill:none;stroke:#00897F;stroke-width:3;stroke-miterlimit:10;}
	.st9{fill:#00897F;}
	.st10{fill:#FF4000;}
	.st11{fill:#354DDE;}
	.st12{fill:#4E77FF;}
	.st13{fill:none;stroke:#00BBA4;stroke-width:4;stroke-miterlimit:10;}
	.st14{fill:none;stroke:#000000;stroke-width:7;stroke-miterlimit:10;}
	.st15{fill:none;stroke:#000000;stroke-width:6;stroke-miterlimit:10;}
</style>
<circle class="st0" cx="201.1" cy="880.24" r="82"/>
<circle class="st0" cx="544.1" cy="880.24" r="82"/>
<line class="st0" x1="195.1" y1="880.24" x2="300.1" y2="618.24"/>
<line class="st0" x1="255.1" y1="730.24" x2="462.1" y2="730.24"/>
<line class="st0" x1="544.1" y1="880.24" x2="462.1" y2="730.24"/>
<line class="st0" x1="242.1" y1="763.24" x2="321.06" y2="878.19"/>
<line class="st0" x1="544.1" y1="880.24" x2="375.06" y2="880.19"/>
<circle class="st0" cx="347.6" cy="887.74" r="28.5"/>
<line class="st0" x1="422.1" y1="730.24" x2="437.1" y2="703.24"/>
<line class="st1" x1="199.28" y1="881.93" x2="304.51" y2="619.75"/>
<line class="st1" x1="547.54" y1="878.37" x2="465.54" y2="728.37"/>
<path class="st1" d="M535.56,965.69c51.33,5.59,96.24-34.76,97-84c0.76-49.11-42.64-90.78-94-87"/>
<path class="st1" d="M346.56,921.69c20.84-0.29,36.61-18.19,35-37c-1.44-16.82-16.5-30.89-35-31"/>
<path class="st2" d="M388.58,875.28l-43.13-5.63c-7.93-1.04-13.45-6.86-12.32-12.95l43.41-234.9c1.09-5.89,8.45-10.7,16.43-10.7
	h43.36c8.38,0,14.4,4.99,13.3,11.09l-43.76,243.6C404.74,872.09,396.93,876.37,388.58,875.28z"/>
<g>
	<path class="st3" d="M255.58,575.66c15.98,0.29,39.2-1.15,65.6-9.53c33.16-10.53,56.57-27.33,70.08-38.72
		c-4.6-13.93-9.2-27.86-13.8-41.79c-16.82,11.75-37.99,24.65-63.48,36.37c-25.43,11.69-48.95,19.34-68.78,24.46
		C248.66,556.19,252.12,565.93,255.58,575.66z"/>
	<line class="st4" x1="422.27" y1="545.24" x2="422.27" y2="543.24"/>
	<rect x="377.77" y="470.74" class="st5" width="116" height="148"/>
	<path class="st6" d="M483.9,495.57c-18.35-1.42-36.71-2.84-55.06-4.26c1.51,2.26,10.99,16.93,6.06,35.26c-3.83,14.26-14,21.9-17,24
		c-6.67,2.96-18.95,8.38-33,13c-16.41,5.4-41.03,11.61-73,13c0.67,12.67,1.33,25.33,2,38c21.43,0.79,51.06-0.4,85-9
		c29.72-7.53,53.61-18.44,71-28c15.95-6.76,18.86-31.33,20-41C492.05,518.27,487.19,503.45,483.9,495.57z"/>
	<path class="st7" d="M485.61,452.74h-93.86c-4.51,0-10.08,3.72-12.55,8.49l-20.43,39.51h135v-39.51
		C493.77,456.46,490.12,452.74,485.61,452.74z"/>
	<polygon class="st5" points="493.66,522.91 484.43,569.25 411.25,526.44 413.75,491.91 	"/>
	<rect x="406.77" y="474.74" class="st5" width="84" height="52"/>
	<path class="st8" d="M479.77,566.74c4.33-7.18,10.12-18.99,11.99-34.42c1.35-11.19,0.22-20.71-1.23-27.58"/>
	<line class="st8" x1="377.77" y1="565.74" x2="381.27" y2="496.24"/>
	<polygon class="st3" points="380.97,496.25 361.84,494.82 357,503.95 377.77,537.87 	"/>
	<path class="st9" d="M442.53,590.68l-64.75,28.06v-8.62c71.89-23.14,75.17-24.34,77.5-25.3c1.35-0.56,3.05-1.29,4.53-1.95
		C453.5,585.72,447.76,588.31,442.53,590.68z"/>
</g>
<path class="st10" d="M483.77,658.74h-106v-40h116v30C493.77,654.26,489.3,658.74,483.77,658.74z"/>
<path class="st10" d="M333.64,728.73l35.24,33.65c5.84,5.58,15.06,5.16,20.76-0.79l103.1-107.66c2.22-2.32,0.58-6.82-3.5-9.86
	l-23.34-17.45c-3.57-2.67-8.2-3.44-10.61-1.73L336.07,709.2C329.07,714.15,327.79,723.15,333.64,728.73z"/>
<path class="st10" d="M339.11,862.72l45.65-3.05c7.12-0.48,12.78-4.29,12.93-8.71l4.69-131.72c0.17-4.64-6.08-8.47-13.68-8.38
	l-45.46,0.55c-7.27,0.09-13.11,3.58-13.28,7.95l-5.37,135.24C324.4,859.55,331.05,863.26,339.11,862.72z"/>
<path class="st11" d="M452.06,421.78h-31c1.42,3.28,4.38,11.12,4.12,21.73c-0.23,9.07-2.7,15.78-4.12,19.04c10.33,0,20.67,0,31,0
	V421.78z"/>
<ellipse class="st12" cx="418.56" cy="406.05" rx="35.5" ry="42.5"/>
<path class="st13" d="M420.27,456.24c-0.11,0.84-0.26,2.97,1,5c1.64,2.63,4.98,4.01,8.5,3.5"/>
<path class="st13" d="M444.83,464.83c0.97,0.16,2.98,0.35,5.06-0.66c2.96-1.44,4.82-4.71,4.89-8.43"/>
<polygon class="st2" points="418.72,650.74 372.96,648.69 377.77,618.74 445.77,618.74 "/>
<polygon class="st2" points="402.01,662.57 371.99,658.67 373.86,643.23 418.72,650.74 "/>
<ellipse transform="matrix(0.0503 -0.9987 0.9987 0.0503 -325.125 775.5977)" class="st3" cx="245.26" cy="558.75" rx="23.1" ry="32.44"/>
<path class="st3" d="M395.8,905.11l-101.4,11.01v0c-2.56-23.61,14.5-44.83,38.11-47.39l58.66-6.37L395.8,905.11z"/>
<line class="st0" x1="240.36" y1="554.66" x2="297.36" y2="594.66"/>
<ellipse transform="matrix(0.0503 -0.9987 0.9987 0.0503 -307.3175 863.4136)" class="st12" cx="300.34" cy="593.3" rx="23.1" ry="32.44"/>
<path class="st14" d="M0.5,994.5C101.18,975.25,224.34,959.74,365,959c149.78-0.79,280.26,15.38,385.5,35.5"/>
<path class="st15" d="M698.45,985.01c-5.63-7.4-15.21-22.4-15.42-42.48c-0.21-19.93,8.92-35.07,14.36-42.6"/>
<ellipse class="st15" cx="709" cy="886" rx="18" ry="23"/>
<path class="st15" d="M643,976c2.23-3.57,6.14-10.9,7-21c0.82-9.58-1.5-17.11-3-21"/>
<ellipse transform="matrix(0.7988 -0.6016 0.6016 0.7988 -421.9747 581.234)" class="st15" cx="658" cy="921.5" rx="15" ry="10.5"/>
<ellipse transform="matrix(0.7988 -0.6016 0.6016 0.7988 -439.1077 572.798)" class="st15" cx="636.82" cy="942.9" rx="11.1" ry="8.23"/>
</svg>
