<?xml version="1.0" encoding="utf-8"?>
<!-- Generator: Adobe Illustrator 27.8.1, SVG Export Plug-In . SVG Version: 6.00 Build 0)  -->
<svg version="1.1" id="Laag_1" xmlns="http://www.w3.org/2000/svg" xmlns:xlink="http://www.w3.org/1999/xlink" x="0px" y="0px"
	 viewBox="0 0 750 200" style="enable-background:new 0 0 750 200;" xml:space="preserve">
<style type="text/css">
	.st0{fill:#4CCB0F;}
	.st1{fill:#161E7E;stroke:#4CCB0F;stroke-width:4;stroke-miterlimit:10;}
	.st2{fill:#3888FF;}
	.st3{font-family:'StevieSansBlack';}
	.st4{font-size:55px;}
</style>
<g>
	<g>
		<path class="st0" d="M625.82,100.99c-4.29-3-6.15-9.19-4.64-13.79c3.1-9.38,20.32-12.18,26.26-13.14c0,0,0.01,0,0.01,0
			c1.34,14.15-3.3,25.53-10.64,28.28C633.84,103.45,629.28,103.41,625.82,100.99z"/>
		<path class="st0" d="M622.67,104.17c-1.93,2.36-6.23,2.25-9.03,1.28c-7.25-2.52-10.03-13.38-10.96-17.03c0,0,0,0,0,0
			c0.82-0.11,13.63-1.67,18.77,6C623.02,96.76,624.87,101.47,622.67,104.17z"/>
		<path class="st1" d="M607.92,125.06c6.6-9.46,13.19-18.91,19.79-28.37"/>
	</g>
	<text transform="matrix(1 0 0 1 103.228 118.004)"><tspan x="0" y="0" class="st2 st3 st4">Cycle</tspan><tspan x="153.78" y="0" class="st0 st3 st4">Sustainabilit</tspan></text>
</g>
</svg>
